<?xml version="1.0" encoding="utf-8"?>
<!-- Generator: Adobe Illustrator 16.0.0, SVG Export Plug-In . SVG Version: 6.00 Build 0)  -->
<!DOCTYPE svg PUBLIC "-//W3C//DTD SVG 1.1//EN" "http://www.w3.org/Graphics/SVG/1.1/DTD/svg11.dtd">
<svg version="1.1" id="Layer_1" xmlns="http://www.w3.org/2000/svg" xmlns:xlink="http://www.w3.org/1999/xlink" x="0px" y="0px"
	 width="476px" height="102px" viewBox="0 0 476 102" enable-background="new 0 0 476 102" xml:space="preserve">
<path fill="#A4AC9D" d="M28.487,35.478H16.166V56.37c0,5.355,0.09,9.642,6.25,9.642c2.054,0,4.286-0.447,6.161-1.429l0.268,6.34
	c-2.41,1.071-5.535,1.517-8.124,1.517c-9.911,0-11.519-5.356-11.519-14.017V35.478H0.095v-5.893h9.106V17.71h6.964v11.875h12.321
	V35.478z"/>
<path fill="#A4AC9D" d="M36.342,29.584h6.964v41.784h-6.964V29.584z M39.825,12.008c2.856,0,5.089,2.321,5.089,5.089
	c0,2.946-2.142,5.09-5.089,5.09c-2.946,0-5.089-2.144-5.089-5.09C34.736,14.329,36.967,12.008,39.825,12.008"/>
<path fill="#A4AC9D" d="M50.449,39.495c0-3.839-0.356-7.143-0.356-9.911h6.605c0,2.233,0.179,4.555,0.179,6.875h0.18
	c1.874-4.106,7.053-7.945,13.927-7.945c9.018,0,11.874,5.089,13.214,7.945c3.036-4.909,6.875-7.945,13.213-7.945
	c11.965,0,15.894,6.695,15.894,17.499v25.355h-6.964V46.37c0-5.804-2.055-11.428-10.179-11.428c-5.893,0-10.803,4.821-10.803,12.32
	v24.105h-6.964V47.709c0-9.195-2.321-12.767-8.036-12.767c-9.017,0-12.946,6.517-12.946,16.07v20.355h-6.963V39.495z"/>
<path fill="#A4AC9D" d="M150.533,46.727c-0.268-7.053-4.91-11.784-12.59-11.784c-7.677,0-12.767,4.731-13.658,11.784H150.533z
	 M156.514,63.78c-4.91,6.339-10.803,8.659-18.571,8.659c-13.123,0-21.158-9.82-21.158-21.963c0-12.945,9.106-21.963,21.427-21.963
	c11.786,0,19.821,8.035,19.821,21.874v2.232h-33.748c0.535,7.23,6.07,13.392,13.658,13.392c5.982,0,10-2.143,13.304-6.339
	L156.514,63.78z"/>
<path fill="#A4AC9D" d="M281.183,60.389c2.767,3.393,5.803,5.624,10.713,5.624c4.375,0,9.196-1.874,9.196-6.428
	c0-4.465-4.463-5.624-8.929-6.607c-7.945-1.785-14.73-3.481-14.73-12.142c0-8.124,7.855-12.32,15.624-12.32
	c5.893,0,11.339,2.23,14.196,7.588l-5.805,3.84c-1.785-2.947-4.731-5-8.838-5c-3.839,0-8.214,1.875-8.214,5.803
	c0,3.482,5,4.999,10.535,6.071c7.411,1.429,13.66,4.107,13.66,12.499c0,9.465-8.393,13.125-16.696,13.125
	c-7.053,0-12.141-1.875-16.249-7.767L281.183,60.389z"/>
<path fill="#A4AC9D" d="M333.769,66.013c9.018,0,14.82-6.784,14.82-15.534s-5.803-15.535-14.82-15.535s-14.821,6.785-14.821,15.535
	S324.751,66.013,333.769,66.013 M311.985,29.586h6.963v6.072h0.179c3.841-4.464,8.929-7.144,15-7.144
	c13.124,0,21.962,9.285,21.962,21.964c0,12.498-9.194,21.963-20.891,21.963c-7.5,0-13.481-3.749-16.071-8.481h-0.179v27.766h-6.963
	V29.586z"/>
<path fill="#A4AC9D" d="M379.749,51.281c-8.839,0-14.552,2.411-14.552,8.035c0,5.268,3.927,7.231,9.195,7.231
	c8.035,0,12.142-5.803,12.321-12.588v-2.679H379.749z M359.572,34.943c4.285-4.375,10.535-6.428,16.605-6.428
	c12.321,0,17.5,5.892,17.5,17.678v17.945c0,2.409,0.268,5.089,0.625,7.231h-6.696c-0.446-1.875-0.446-4.464-0.446-6.25h-0.179
	c-2.769,4.286-7.41,7.321-13.749,7.321c-8.482,0-15.535-4.286-15.535-12.41c0-13.838,16.071-14.642,26.338-14.642h2.679v-1.25
	c0-6.071-3.84-9.196-10.357-9.196c-4.463,0-9.107,1.517-12.41,4.553L359.572,34.943z"/>
<path fill="#A4AC9D" d="M429.122,40.032c-2.946-3.571-6.339-5.089-10.535-5.089c-9.374,0-14.106,6.964-14.106,15.536
	c0,8.57,5.624,15.533,14.106,15.533c4.553,0,8.035-1.606,10.625-5.178l5.178,4.91c-4.018,4.643-9.731,6.696-15.803,6.696
	c-12.946,0-21.606-9.106-21.606-21.962c0-12.68,8.75-21.965,21.606-21.965c6.161,0,11.875,2.054,16.071,6.607L429.122,40.032z"/>
<path fill="#A4AC9D" d="M468.406,46.729c-0.269-7.053-4.911-11.785-12.59-11.785c-7.678,0-12.767,4.732-13.659,11.785H468.406z
	 M474.386,63.781c-4.91,6.339-10.802,8.66-18.57,8.66c-13.123,0-21.159-9.821-21.159-21.963c0-12.946,9.106-21.963,21.428-21.963
	c11.785,0,19.82,8.035,19.82,21.874v2.231h-33.748c0.536,7.231,6.07,13.393,13.659,13.393c5.981,0,10-2.144,13.304-6.339
	L474.386,63.781z"/>
<path fill="#182A54" d="M202.93,25.982c-5.44,0-9.866,4.427-9.866,9.868c0,5.44,4.426,9.864,9.866,9.864
	c5.439,0,9.865-4.424,9.865-9.864C212.795,30.409,208.37,25.982,202.93,25.982 M202.93,51.83c-8.812,0-15.981-7.168-15.981-15.979
	c0-8.812,7.17-15.981,15.981-15.981c8.811,0,15.979,7.169,15.979,15.981C218.909,44.662,211.741,51.83,202.93,51.83"/>
<path fill="#83A138" d="M232.518,51.351c-7.765,0-14.082,6.317-14.082,14.083s6.317,14.083,14.082,14.083
	c7.769,0,14.088-6.317,14.088-14.083S240.287,51.351,232.518,51.351 M232.518,85.629c-11.136,0-20.196-9.059-20.196-20.195
	c0-11.138,9.061-20.198,20.196-20.198c11.14,0,20.202,9.061,20.202,20.198C252.72,76.57,243.658,85.629,232.518,85.629"/>
<path fill="#BEC997" d="M261.708,62.101h-9.263c0.181,1.085,0.275,2.197,0.275,3.333c0,1.135-0.095,2.248-0.274,3.332h11.746v-2.992
	h-2.484V62.101z M246.208,62.101h-14.132v6.665h14.132c0.26-1.069,0.399-2.185,0.399-3.332
	C246.607,64.285,246.467,63.169,246.208,62.101"/>
<path fill="#83A138" d="M252.445,62.101h-6.236c0.26,1.068,0.397,2.185,0.397,3.333c0,1.147-0.138,2.263-0.397,3.332h6.236
	c0.182-1.084,0.275-2.197,0.275-3.332C252.72,64.298,252.626,63.186,252.445,62.101"/>
<path fill="#807F9A" d="M202.677,32.518h-9.034c-0.375,1.042-0.579,2.164-0.579,3.333s0.204,2.291,0.579,3.332h9.034V32.518z
	 M187.299,32.518H170.56v3.031h3.191v3.634h13.548c-0.229-1.075-0.351-2.19-0.351-3.332S187.07,33.593,187.299,32.518"/>
<path fill="#182A54" d="M193.643,32.518h-6.344c-0.229,1.075-0.351,2.191-0.351,3.333s0.121,2.257,0.351,3.332h6.344
	c-0.375-1.041-0.579-2.163-0.579-3.332S193.268,33.56,193.643,32.518"/>
<polygon fill="#A29CB3" points="233.242,0 202.993,0 202.993,6.664 229.189,6.664 229.189,3.354 233.242,3.354 "/>
<polygon fill="#D3E7EA" points="233.777,94.585 206.263,94.585 206.263,97.91 203.528,97.91 203.528,101.249 233.777,101.249 "/>
<polygon fill="#98AE57" points="264.635,32.518 235.853,32.518 235.853,35.468 232.52,35.468 232.52,39.183 261.708,39.183 
	261.708,35.524 264.635,35.524 "/>
<polygon fill="#3E466A" points="202.677,62.101 173.751,62.101 173.751,65.796 170.56,65.796 170.56,68.766 199.597,68.766 
	199.597,65.797 202.677,65.797 "/>
<polygon fill="#A3B66B" points="268.372,35.525 264.635,35.525 264.635,39.182 261.708,39.182 261.708,62.1 264.191,62.1 
	264.191,65.772 268.372,65.772 "/>
<rect x="261.708" y="62.101" fill="#93AB4F" width="2.483" height="3.673"/>
<rect x="261.708" y="35.524" fill="#88A43F" width="2.928" height="3.657"/>
<polygon fill="#515577" points="170.56,35.548 167.088,35.548 167.088,65.796 170.56,65.796 170.56,62.101 173.751,62.101 
	173.751,39.183 170.56,39.183 "/>
<rect x="170.559" y="35.549" fill="#374166" width="3.192" height="3.634"/>
<rect x="170.559" y="62.101" fill="#24325A" width="3.192" height="3.696"/>
<polygon fill="#70698D" points="235.853,3.354 233.242,3.354 233.242,6.664 229.188,6.664 229.188,35.468 232.52,35.468 
	232.52,32.518 235.853,32.518 "/>
<rect x="229.189" y="3.354" fill="#665E85" width="4.054" height="3.311"/>
<rect x="232.52" y="32.518" fill="#616277" width="3.333" height="2.95"/>
<polygon fill="#B2D7DF" points="206.262,65.797 202.677,65.797 202.677,68.765 199.596,68.765 199.596,97.91 203.528,97.91 
	203.528,94.585 206.262,94.585 "/>
<rect x="203.528" y="94.585" fill="#ABD3DA" width="2.734" height="3.325"/>
<rect x="199.597" y="65.797" fill="#86AABB" width="3.08" height="2.968"/>
<path fill="#58527B" d="M206.261,4.781c0,1.04-0.851,1.89-1.89,1.89h-2.885c-1.038,0-1.889-0.85-1.889-1.89V1.898
	c0-1.04,0.851-1.891,1.889-1.891h2.885c1.039,0,1.89,0.851,1.89,1.891V4.781z"/>
<path fill="#58527B" d="M235.853,4.781c0,1.04-0.851,1.89-1.89,1.89h-2.885c-1.038,0-1.889-0.85-1.889-1.89V1.898
	c0-1.04,0.851-1.891,1.889-1.891h2.885c1.039,0,1.89,0.851,1.89,1.891V4.781z"/>
<path fill="#182A54" d="M206.261,37.291c0,1.04-0.851,1.891-1.89,1.891h-2.885c-1.038,0-1.889-0.851-1.889-1.891v-2.883
	c0-1.04,0.851-1.891,1.889-1.891h2.885c1.039,0,1.89,0.851,1.89,1.891V37.291z"/>
<path fill="#58527B" d="M235.853,37.291c0,1.04-0.851,1.892-1.89,1.892h-2.885c-1.038,0-1.889-0.852-1.889-1.892v-2.883
	c0-1.04,0.851-1.891,1.889-1.891h2.885c1.039,0,1.89,0.851,1.89,1.891V37.291z"/>
<path fill="#A1CFD8" d="M206.261,66.874c0,1.04-0.851,1.891-1.89,1.891h-2.885c-1.038,0-1.889-0.851-1.889-1.891v-2.883
	c0-1.04,0.851-1.891,1.889-1.891h2.885c1.039,0,1.89,0.851,1.89,1.891V66.874z"/>
<path fill="#83A138" d="M235.852,66.874c0,1.04-0.851,1.891-1.89,1.891h-2.884c-1.039,0-1.89-0.851-1.89-1.891v-2.883
	c0-1.04,0.851-1.891,1.89-1.891h2.884c1.039,0,1.89,0.851,1.89,1.891V66.874z"/>
<path fill="#83A138" d="M268.372,37.291c0,1.04-0.852,1.892-1.891,1.892h-2.884c-1.039,0-1.889-0.852-1.889-1.892v-2.883
	c0-1.04,0.85-1.891,1.889-1.891h2.884c1.039,0,1.891,0.851,1.891,1.891V37.291z"/>
<path fill="#83A138" d="M268.372,66.874c0,1.04-0.852,1.891-1.891,1.891h-2.884c-1.039,0-1.889-0.851-1.889-1.891v-2.883
	c0-1.04,0.85-1.891,1.889-1.891h2.884c1.039,0,1.891,0.851,1.891,1.891V66.874z"/>
<path fill="#182A54" d="M173.751,37.291c0,1.04-0.851,1.892-1.891,1.892h-2.883c-1.039,0-1.889-0.852-1.889-1.892v-2.883
	c0-1.04,0.85-1.891,1.889-1.891h2.883c1.04,0,1.891,0.851,1.891,1.891V37.291z"/>
<path fill="#182A54" d="M173.751,66.874c0,1.04-0.851,1.891-1.891,1.891h-2.883c-1.039,0-1.889-0.851-1.889-1.891v-2.883
	c0-1.04,0.85-1.891,1.889-1.891h2.883c1.04,0,1.891,0.851,1.891,1.891V66.874z"/>
<path fill="#A1CFD8" d="M206.261,99.343c0,1.04-0.851,1.892-1.89,1.892h-2.884c-1.039,0-1.89-0.852-1.89-1.892v-2.882
	c0-1.04,0.851-1.891,1.89-1.891h2.884c1.039,0,1.89,0.851,1.89,1.891V99.343z"/>
<path fill="#A1CFD8" d="M235.852,99.358c0,1.04-0.851,1.891-1.89,1.891h-2.884c-1.039,0-1.89-0.851-1.89-1.891v-2.883
	c0-1.04,0.851-1.892,1.89-1.892h2.884c1.039,0,1.89,0.852,1.89,1.892V99.358z"/>
</svg>
